<?xml version="1.0" encoding="utf-8"?>
<!-- Generator: Adobe Illustrator 25.2.3, SVG Export Plug-In . SVG Version: 6.00 Build 0)  -->
<svg version="1.1" id="Capa_1" xmlns="http://www.w3.org/2000/svg" xmlns:xlink="http://www.w3.org/1999/xlink" x="0px" y="0px"
	 viewBox="0 0 44 44" style="enable-background:new 0 0 44 44;" xml:space="preserve">
<style type="text/css">
	.st0{fill:#1A1A1A;}
	.st1{fill:#FFFFFF;}
</style>
<g>
	<circle class="st0" cx="22" cy="22" r="22"/>
</g>
<path class="st1" d="M33.9,14.48c-0.76,0.34-1.6,0.55-2.43,0.69c0.39-0.07,0.96-0.77,1.19-1.06c0.35-0.44,0.64-0.93,0.81-1.47
	c0.02-0.04,0.04-0.09-0.01-0.13c-0.05-0.02-0.09-0.01-0.13,0.01c-0.92,0.49-1.87,0.85-2.88,1.1c-0.08,0.02-0.15,0-0.2-0.05
	c-0.08-0.09-0.16-0.18-0.25-0.26c-0.42-0.36-0.88-0.64-1.39-0.85c-0.67-0.27-1.41-0.39-2.14-0.34c-0.71,0.05-1.4,0.25-2.03,0.57
	c-0.63,0.33-1.19,0.79-1.64,1.34c-0.46,0.57-0.8,1.24-0.98,1.96c-0.17,0.69-0.15,1.37-0.05,2.07c0.02,0.12,0.01,0.13-0.1,0.12
	c-3.95-0.59-7.23-2-9.89-5.03C11.69,13,11.62,13,11.53,13.14c-1.16,1.74-0.6,4.55,0.85,5.92c0.19,0.18,0.39,0.37,0.61,0.53
	c-0.08,0.02-1.05-0.09-1.91-0.53c-0.12-0.07-0.17-0.03-0.18,0.1c-0.01,0.19,0.01,0.36,0.03,0.57c0.22,1.77,1.45,3.4,3.12,4.04
	c0.2,0.08,0.42,0.16,0.63,0.19c-0.38,0.08-0.78,0.14-1.87,0.06c-0.14-0.03-0.19,0.04-0.14,0.17c0.82,2.24,2.6,2.91,3.93,3.29
	c0.18,0.03,0.36,0.03,0.54,0.07c-0.01,0.02-0.02,0.02-0.03,0.03c-0.44,0.67-1.97,1.17-2.68,1.42c-1.3,0.45-2.71,0.66-4.08,0.52
	c-0.22-0.03-0.27-0.03-0.32,0c-0.06,0.04-0.01,0.09,0.06,0.15c0.28,0.18,0.56,0.35,0.85,0.5c0.87,0.46,1.78,0.83,2.73,1.09
	c4.9,1.35,10.42,0.36,14.09-3.3c2.89-2.87,3.9-6.83,3.9-10.79c0-0.16,0.18-0.24,0.29-0.32c0.75-0.56,1.36-1.24,1.92-1.99
	C34,14.71,34,14.56,34,14.5c0-0.01,0-0.02,0-0.02C34,14.41,34,14.43,33.9,14.48z"/>
</svg>
