<?xml version="1.0" encoding="utf-8"?>
<!-- Generator: Adobe Illustrator 25.2.3, SVG Export Plug-In . SVG Version: 6.00 Build 0)  -->
<svg version="1.1" id="Capa_1" xmlns="http://www.w3.org/2000/svg" xmlns:xlink="http://www.w3.org/1999/xlink" x="0px" y="0px"
	 viewBox="0 0 44 44" style="enable-background:new 0 0 44 44;" xml:space="preserve">
<style type="text/css">
	.st0{fill:#1A1A1A;}
	.st1{fill:#FFFFFF;}
	.st2{fill-rule:evenodd;clip-rule:evenodd;fill:#FFFFFF;}
</style>
<g>
	<circle class="st0" cx="22" cy="22" r="22"/>
	<g>
		<path class="st1" d="M10.11,34.45l1.83-6.84c-1.04-1.87-1.59-3.97-1.59-6.1c0-6.97,5.67-12.64,12.64-12.64
			c6.97,0,12.64,5.67,12.64,12.64c0,6.97-5.67,12.64-12.64,12.64c-2.09,0-4.16-0.53-6.01-1.53L10.11,34.45z M17.33,30.04l0.43,0.26
			c1.59,0.95,3.4,1.45,5.23,1.45c5.65,0,10.25-4.6,10.25-10.25S28.65,11.25,23,11.25c-5.65,0-10.25,4.6-10.25,10.25
			c0,1.87,0.52,3.7,1.5,5.31l0.27,0.44l-1.02,3.82L17.33,30.04z"/>
		<path class="st2" d="M27.7,23.26c-0.52-0.31-1.2-0.66-1.81-0.41c-0.47,0.19-0.77,0.93-1.07,1.3c-0.16,0.19-0.34,0.22-0.58,0.13
			c-1.76-0.7-3.12-1.88-4.09-3.5c-0.16-0.25-0.14-0.45,0.06-0.69c0.29-0.35,0.66-0.74,0.74-1.21c0.08-0.47-0.14-1.01-0.33-1.43
			c-0.25-0.53-0.52-1.29-1.05-1.59c-0.49-0.28-1.13-0.12-1.57,0.23c-0.75,0.61-1.11,1.57-1.1,2.52c0,0.27,0.04,0.54,0.1,0.8
			c0.15,0.63,0.44,1.21,0.77,1.77c0.25,0.42,0.51,0.83,0.8,1.22c0.94,1.28,2.12,2.4,3.48,3.23c0.68,0.42,1.41,0.78,2.17,1.03
			c0.85,0.28,1.61,0.57,2.52,0.4c0.96-0.18,1.91-0.78,2.29-1.7c0.11-0.27,0.17-0.58,0.11-0.87C28.99,23.9,28.18,23.55,27.7,23.26z"
			/>
	</g>
</g>
</svg>
