<?xml version="1.0" encoding="utf-8"?>
<!-- Generator: Adobe Illustrator 25.2.3, SVG Export Plug-In . SVG Version: 6.00 Build 0)  -->
<svg version="1.1" id="Capa_1" xmlns="http://www.w3.org/2000/svg" xmlns:xlink="http://www.w3.org/1999/xlink" x="0px" y="0px"
	 viewBox="0 0 44 44" style="enable-background:new 0 0 44 44;" xml:space="preserve">
<style type="text/css">
	.st0{fill:#1A1A1A;}
	.st1{fill:#FFFFFF;}
</style>
<g>
	<circle class="st0" cx="22" cy="22" r="22"/>
</g>
<path class="st1" d="M34.04,18.86c0-2.92-2.37-5.28-5.28-5.28H15.25c-2.92,0-5.28,2.37-5.28,5.28v6.29c0,2.92,2.37,5.28,5.28,5.28
	h13.51c2.92,0,5.28-2.37,5.28-5.28V18.86z M26.09,22.47l-6.06,3c-0.24,0.13-1.04-0.04-1.04-0.31V19c0-0.27,0.81-0.45,1.05-0.31
	l5.8,3.15C26.08,21.99,26.34,22.34,26.09,22.47z"/>
</svg>
